<svg width="402" height="290" viewBox="0 0 402 290" fill="none" xmlns="http://www.w3.org/2000/svg">
<path d="M281.736 76.4922H195.726V84.3871H281.736V76.4922Z" fill="#80DDB1"/>
<path d="M373.73 102.553H301.348V110.448H373.73V102.553Z" fill="#80DDB1"/>
<path d="M373.73 115.583H319.27V123.478H373.73V115.583Z" fill="#80DDB1"/>
<path d="M54.2221 290.518H-49.644V59.7726L2.28539 0L54.2221 59.7726V290.518Z" fill="#A8C27D"/>
<path d="M2.28534 0H74.6013L126.538 59.7726H54.2221L2.28534 0Z" fill="#587725"/>
<path d="M126.538 59.7727H54.2222V290.518H126.538V59.7727Z" fill="white"/>
<path d="M29.9398 175.142H9.87781V197.166H29.9398V175.142Z" fill="#587725"/>
<path d="M29.9398 129.993H9.87781V152.018H29.9398V129.993Z" fill="white"/>
<path d="M29.9398 84.8446H9.87781V106.869H29.9398V84.8446Z" fill="white"/>
<path d="M13.3309 51.6121C13.3309 53.801 12.6818 55.9409 11.4657 57.7609C10.2495 59.581 8.52101 60.9996 6.49866 61.8372C4.47632 62.6749 2.25098 62.8941 0.104069 62.4671C-2.04284 62.04 -4.01491 60.9859 -5.56275 59.4381C-7.11059 57.8902 -8.16467 55.9182 -8.59171 53.7713C-9.01876 51.6243 -8.79959 49.399 -7.96191 47.3767C-7.12423 45.3543 -5.70566 43.6258 -3.88559 42.4097C-2.06553 41.1935 0.0742903 40.5444 2.26326 40.5444C5.19858 40.5444 8.01368 41.7105 10.0893 43.7861C12.1649 45.8617 13.3309 48.6768 13.3309 51.6121Z" fill="white"/>
<path d="M19.9125 232.066H-15.3416V290.518H19.9125V232.066Z" fill="#587725"/>
<path d="M401.894 290.526H291.97V128.517L346.932 53.4937L401.894 128.517V290.526Z" fill="white"/>
<path d="M77.3535 128.517L132.315 53.4937H346.932L291.97 128.517H77.3535Z" fill="#587725"/>
<path d="M291.97 128.518H77.3535V290.526H291.97V128.518Z" fill="#A8C27D"/>
<path d="M338.033 153.493H317.964V175.518H338.033V153.493Z" fill="#A8C27D"/>
<path d="M373.28 153.493H353.218V175.518H373.28V153.493Z" fill="#A8C27D"/>
<path d="M126.066 155.456H105.997V177.481H126.066V155.456Z" fill="white"/>
<path d="M182.784 155.456H162.722V177.481H182.784V155.456Z" fill="white"/>
<path d="M228.08 155.456H208.011V177.481H228.08V155.456Z" fill="white"/>
<path d="M263.327 155.456H243.265V177.481H263.327V155.456Z" fill="white"/>
<path d="M126.066 199.955H105.997V221.98H126.066V199.955Z" fill="white"/>
<path d="M161.313 199.955H141.251V221.98H161.313V199.955Z" fill="white"/>
<path d="M228.08 199.955H208.011V221.98H228.08V199.955Z" fill="white"/>
<path d="M263.327 199.955H243.265V221.98H263.327V199.955Z" fill="white"/>
<path d="M126.066 244.447H105.997V266.472H126.066V244.447Z" fill="white"/>
<path d="M161.313 244.447H141.251V266.472H161.313V244.447Z" fill="white"/>
<path d="M228.08 244.447H208.011V266.472H228.08V244.447Z" fill="white"/>
<path d="M263.327 244.447H243.265V266.472H263.327V244.447Z" fill="white"/>
<path d="M338.033 199.955H317.964V221.98H338.033V199.955Z" fill="#A8C27D"/>
<path d="M373.28 199.955H353.218V221.98H373.28V199.955Z" fill="#A8C27D"/>
<path d="M338.033 246.41H317.964V268.434H338.033V246.41Z" fill="#A8C27D"/>
<path d="M373.28 246.41H353.218V268.434H373.28V246.41Z" fill="#A8C27D"/>
<path d="M357.188 113.901C357.188 116.187 356.51 118.423 355.239 120.324C353.969 122.226 352.163 123.708 350.05 124.583C347.938 125.458 345.613 125.687 343.37 125.241C341.127 124.794 339.067 123.693 337.45 122.076C335.833 120.459 334.732 118.399 334.286 116.156C333.84 113.914 334.069 111.589 334.944 109.476C335.819 107.363 337.301 105.558 339.202 104.287C341.104 103.017 343.339 102.339 345.626 102.339C348.692 102.341 351.631 103.559 353.799 105.727C355.967 107.895 357.186 110.835 357.188 113.901Z" fill="#A8C27D"/>
<path d="M75.2971 292H182.83V209.666L129.067 146L75.2971 209.666V292Z" fill="white"/>
<path d="M128.626 146H0.433891L-53.2179 209.82H74.9671L128.626 146Z" fill="#587725"/>
<path d="M75.2971 209.82H-53.2179V292H75.2971V209.82Z" fill="#A8C27D"/>
<path d="M137.812 267.918H157.882V245.893H137.812V267.918Z" fill="#A8C27D"/>
<path d="M100.61 290.526H122.635V245.893H100.61V290.526Z" fill="#A8C27D"/>
<path d="M118.665 202.125C118.665 204.41 119.343 206.644 120.611 208.544C121.88 210.445 123.684 211.927 125.794 212.803C127.905 213.679 130.228 213.91 132.469 213.467C134.711 213.024 136.771 211.926 138.39 210.313C140.008 208.7 141.112 206.643 141.563 204.403C142.013 202.162 141.789 199.839 140.92 197.725C140.05 195.612 138.574 193.804 136.678 192.529C134.781 191.254 132.549 190.57 130.264 190.563C128.743 190.558 127.235 190.853 125.828 191.432C124.421 192.011 123.142 192.862 122.065 193.936C120.987 195.01 120.132 196.286 119.549 197.691C118.966 199.097 118.665 200.603 118.665 202.125Z" fill="#A8C27D"/>
</svg>
