<svg width="16" height="16" viewBox="0 0 16 16" fill="none" xmlns="http://www.w3.org/2000/svg">
<path fill-rule="evenodd" clip-rule="evenodd" d="M1.99366 3.24832C2.20454 2.89915 3.36644 1.62914 4.19559 1.66748C4.44344 1.68802 4.66254 1.83795 4.84055 2.01185C5.2493 2.411 6.41942 3.92064 6.48583 4.23831C6.64742 5.01743 5.71899 5.46656 6.00313 6.25184C6.72752 8.02439 7.97569 9.27249 9.74901 9.99616C10.5336 10.2803 10.9828 9.35191 11.762 9.51417C12.079 9.58058 13.5894 10.7506 13.9885 11.1594C14.1618 11.3367 14.3124 11.5565 14.3329 11.8043C14.3637 12.6772 13.0149 13.8555 12.752 14.0061C12.1317 14.4498 11.3224 14.4422 10.3358 13.9835C7.58269 12.8381 3.18295 8.52144 2.01626 5.66442C1.56985 4.68333 1.53904 3.8686 1.99366 3.24832Z" stroke="#719B2D" stroke-width="1.5" stroke-linecap="round" stroke-linejoin="round"/>
</svg>
