<svg width="16" height="16" viewBox="0 0 16 16" fill="none" xmlns="http://www.w3.org/2000/svg">
<path d="M7.66165 1.85938H5.16898C3.11898 1.85938 1.83365 3.31071 1.83365 5.36537V10.908C1.83365 12.9627 3.11298 14.414 5.16898 14.414H11.0516C13.1083 14.414 14.3876 12.9627 14.3876 10.908V8.22271" stroke="#719B2D" stroke-width="1.5" stroke-linecap="round" stroke-linejoin="round"/>
<path fill-rule="evenodd" clip-rule="evenodd" d="M5.88532 7.28062L10.8673 2.29862C11.488 1.67862 12.494 1.67862 13.1147 2.29862L13.926 3.10995C14.5467 3.73062 14.5467 4.73728 13.926 5.35728L8.91999 10.3633C8.64866 10.6346 8.28066 10.7873 7.89666 10.7873H5.39932L5.46199 8.26729C5.47132 7.89662 5.62266 7.54328 5.88532 7.28062Z" stroke="#719B2D" stroke-width="1.5" stroke-linecap="round" stroke-linejoin="round"/>
<path d="M10.1103 3.06836L13.1543 6.11236" stroke="#719B2D" stroke-width="1.5" stroke-linecap="round" stroke-linejoin="round"/>
</svg>
