<svg width="16" height="16" viewBox="0 0 16 16" fill="none" xmlns="http://www.w3.org/2000/svg">
<circle cx="7.71942" cy="4.85198" r="3.18535" stroke="#719B2D" stroke-width="1.5" stroke-linecap="round" stroke-linejoin="round"/>
<path fill-rule="evenodd" clip-rule="evenodd" d="M2.66679 12.4676C2.66593 12.2437 2.71601 12.0225 2.81324 11.8207C3.11835 11.2105 3.97876 10.8871 4.69272 10.7407C5.20763 10.6308 5.72965 10.5574 6.25489 10.521C7.22733 10.4356 8.2054 10.4356 9.17785 10.521C9.70304 10.5578 10.225 10.6312 10.74 10.7407C11.454 10.8871 12.3144 11.18 12.6195 11.8207C12.815 12.2319 12.815 12.7093 12.6195 13.1205C12.3144 13.7612 11.454 14.0542 10.74 14.1945C10.2257 14.3089 9.7035 14.3844 9.17785 14.4203C8.38635 14.4874 7.59117 14.4996 6.79798 14.4569C6.61492 14.4569 6.43795 14.4569 6.25489 14.4203C5.7312 14.3849 5.21099 14.3094 4.69882 14.1945C3.97876 14.0542 3.12445 13.7612 2.81324 13.1205C2.71651 12.9165 2.66648 12.6934 2.66679 12.4676Z" stroke="#719B2D" stroke-width="1.5" stroke-linecap="round" stroke-linejoin="round"/>
</svg>
